HIERARCHY
ROOT Hips
{
	OFFSET 0.00000 0.00000 0.00000
	CHANNELS 6 Xposition Yposition Zposition Zrotation Yrotation Xrotation 
	JOINT LHipJoint
	{
		OFFSET 0 0 0
		CHANNELS 3 Zrotation Yrotation Xrotation
		JOINT LeftHip
		{
			OFFSET 1.62329 -1.80800 0.67318
			CHANNELS 3 Zrotation Yrotation Xrotation
			JOINT LeftKnee
			{
				OFFSET 2.57139 -7.06484 0.00000
				CHANNELS 3 Zrotation Yrotation Xrotation
				JOINT LeftAnkle
				{
					OFFSET 2.52017 -6.92413 0.00000
					CHANNELS 3 Zrotation Yrotation Xrotation
					JOINT LeftToe
					{
						OFFSET 0.23295 -0.64001 2.10214
						CHANNELS 3 Zrotation Yrotation Xrotation
						End Site
						{
							OFFSET 0.00000 -0.00000 1.10139
						}
					}
				}
			}
		}
	}
	JOINT RHipJoint
	{
		OFFSET 0 0 0
		CHANNELS 3 Zrotation Yrotation Xrotation
		JOINT RightHip
		{
			OFFSET -1.48061 -1.80800 0.67318
			CHANNELS 3 Zrotation Yrotation Xrotation
			JOINT RightKnee
			{
				OFFSET -2.63258 -7.23296 0.00000
				CHANNELS 3 Zrotation Yrotation Xrotation
				JOINT RightAnkle
				{
					OFFSET -2.54779 -7.00000 0.00000
					CHANNELS 3 Zrotation Yrotation Xrotation
					JOINT RightToe
					{
						OFFSET -0.23067 -0.63376 2.12161
						CHANNELS 3 Zrotation Yrotation Xrotation
						End Site
						{
							OFFSET -0.00000 -0.00000 1.11000
						}
					}
				}
			}
		}
	}
	JOINT lowerback
	{
		OFFSET 0 0 0
		CHANNELS 3 Zrotation Yrotation Xrotation
		JOINT Chest
		{
			OFFSET -0.02108 2.07573 -0.16981
			CHANNELS 3 Zrotation Yrotation Xrotation
			JOINT Chest2
			{
				OFFSET 0.05070 2.08439 -0.03141
				CHANNELS 3 Zrotation Yrotation Xrotation
				JOINT lowerneck
				{
					OFFSET 0 0 0
					CHANNELS 3 Zrotation Yrotation Xrotation
					JOINT Neck
					{
						OFFSET -0.10731 1.60408 0.31370
						CHANNELS 3 Zrotation Yrotation Xrotation
						JOINT Head
						{
							OFFSET 0.08411 1.65679 -0.30822
							CHANNELS 3 Zrotation Yrotation Xrotation
							End Site
							{
								OFFSET 0.03911 1.69149 -0.14146
							}
						}
					}
				}
				JOINT LeftCollar
				{
					OFFSET 0 0 0
					CHANNELS 3 Zrotation Yrotation Xrotation
					JOINT LeftShoulder
					{
						OFFSET 3.52315 0.73219 -0.54694
CHANNELS 3 Zrotation Xrotation Yrotation
						JOINT LeftElbow
						{
OFFSET 0 -5.324620 -0.000000
CHANNELS 3 Zrotation Xrotation Yrotation
							JOINT LeftWrist
							{
OFFSET 0 -3.484020 -0.000000
CHANNELS 3 Zrotation Xrotation Yrotation
								JOINT lhand
								{
									OFFSET 0 0 0
CHANNELS 3 Zrotation Xrotation Yrotation
									JOINT LFingers
									{
OFFSET 0 -0.572480 -0.000000
CHANNELS 3 Zrotation Xrotation Yrotation
										End Site
										{
OFFSET 0 -0.461540 -0.000000
										}
									}
								}
								JOINT LThumb
								{
OFFSET 0 0.000000 0.000000
CHANNELS 3 Zrotation Xrotation Yrotation
									End Site
									{
OFFSET 0 -0.468590 0.468590
									}
								}
							}
						}
					}
				}
				JOINT RightCollar
				{
					OFFSET 0 0 0
					CHANNELS 3 Zrotation Yrotation Xrotation
					JOINT RightShoulder
					{
						OFFSET -3.41766 0.93592 -0.10019
CHANNELS 3 Zrotation Xrotation Yrotation
						JOINT RightElbow
						{
OFFSET 0 -5.335890 -0.000000
CHANNELS 3 Zrotation Xrotation Yrotation
							JOINT RightWrist
							{
OFFSET 0 -3.641340 -0.000000
CHANNELS 3 Zrotation Xrotation Yrotation
								JOINT rhand
								{
									OFFSET 0 0 0
CHANNELS 3 Zrotation Xrotation Yrotation
									JOINT RFingers
									{
OFFSET 0 -0.734810 -0.000000
CHANNELS 3 Zrotation Xrotation Yrotation
										End Site
										{
OFFSET 0 -0.592420 -0.000000
										}
									}
								}
								JOINT RThumb
								{
OFFSET 0 0.000000 0.000000
CHANNELS 3 Zrotation Xrotation Yrotation
									End Site
									{
OFFSET 0 -0.601470 0.601470
									}
								}
							}
						}
					}
				}
			}
		}
	}
}
MOTION
Frames: 10
Frame Time: 0.008333333333333333
-2.419507 17.578147 0.913603 0.858136 -2.035694 1.981440 0.000000 0.000000 0.000000 -13.884875 -9.220422 -3.949684 1.872633 8.595589 24.538174 0.639385 6.107983 -18.550535 1.713922 -8.242759 -23.454030 0.000000 0.000000 0.000000 14.978596 5.697706 -9.811771 -3.507684 -11.474746 33.898130 -1.721139 3.850473 -23.874101 -0.135915 -2.367840 6.523762 -6.130720 0.412853 4.729455 3.217790 0.287476 -1.907476 6.817644 0.383813 -4.705745 -7.701981 -0.708872 -22.549178 2.592712 1.053188 25.021264 2.437497 0.069962 11.921521 0.000000 0.000000 0.000000 87.217254 5.456548 43.553397 31.675359 -42.286797 12.521841 22.583728 11.114578 -10.070613 0.000000 0.000000 0.000000 -7.125000 0.000000 0.000000 -3.924155 40.836526 -0.403593 0.000000 0.000000 0.000000 -67.014039 6.443108 -45.404248 -31.218452 -41.914663 -12.215635 -35.840631 -3.874481 -0.999437 0.000000 0.000000 0.000000 7.125000 0.000000 0.000000 -7.205742 28.716399 -2.878090
-2.450261 17.587475 0.796039 -0.735284 -0.587834 2.244484 0.000000 0.000000 0.000000 -11.723528 -10.200316 -5.368973 2.064607 8.999391 25.793353 0.685964 5.284801 -18.450959 1.771403 -8.372659 -23.851951 0.000000 0.000000 0.000000 16.905298 4.806249 -10.080445 -3.300376 -11.166098 32.842017 -1.660847 2.574243 -23.682302 -0.062849 -1.617214 4.448926 -6.926825 0.508627 4.698140 0.934173 0.272965 -1.619772 4.847226 0.340264 -4.371329 -7.560659 -0.589203 -22.615850 4.060801 0.749045 24.510458 2.908078 0.159931 11.735963 0.000000 0.000000 0.000000 79.637738 5.997246 43.486967 31.471105 -42.121446 12.384629 22.535751 7.495378 -11.991761 0.000000 0.000000 0.000000 -7.125000 0.000000 0.000000 -4.238579 42.891292 -0.220540 0.000000 0.000000 0.000000 -72.289857 5.109720 -44.246071 -34.379255 -44.363416 -14.377733 -37.046144 -1.858894 -1.038359 0.000000 0.000000 0.000000 7.125000 0.000000 0.000000 -8.132428 28.640416 -3.269528
-2.501327 17.592746 0.689538 -2.526110 0.713040 2.824475 0.000000 0.000000 0.000000 -9.097511 -10.973073 -7.347562 2.276864 9.420398 27.119418 0.740786 4.134630 -18.275515 1.844814 -8.534928 -24.351217 0.000000 0.000000 0.000000 19.092134 4.160670 -10.800438 -3.162385 -10.953341 32.122780 -1.618629 1.820614 -23.547727 -0.031270 -1.139751 3.133340 -7.644670 0.580053 4.312525 -1.337431 0.275067 -1.440905 2.875737 0.307894 -3.958424 -7.400444 0.046810 -22.528394 5.005538 1.317400 24.673801 3.332304 0.555391 11.726696 0.000000 0.000000 0.000000 72.877243 6.496702 43.770959 30.914385 -41.664380 12.012904 22.419899 2.986382 -14.110980 0.000000 0.000000 0.000000 -7.125000 0.000000 0.000000 -4.701854 45.140868 0.016162 0.000000 0.000000 0.000000 -77.417889 3.657655 -43.333264 -37.046989 -46.219131 -16.274118 -37.187504 0.038659 -1.890671 0.000000 0.000000 0.000000 7.125000 0.000000 0.000000 -8.147322 27.578649 -3.481973
-2.584675 17.581616 0.638805 -4.392703 1.213442 3.228925 0.000000 0.000000 0.000000 -6.453130 -11.822891 -8.402038 2.443180 9.733845 28.119120 0.798957 3.527485 -18.520428 1.663903 -8.127837 -23.102918 0.000000 0.000000 0.000000 21.485800 4.013937 -11.080509 -2.991759 -10.681665 31.213686 -1.543288 1.024755 -23.191932 -0.017334 -0.848842 2.333073 -8.335251 0.844726 3.454394 -3.948296 0.585928 -1.506802 0.531031 0.433414 -3.559844 -7.106856 1.362554 -21.838141 4.743300 3.123521 26.062365 3.501214 1.325165 11.999374 0.000000 0.000000 0.000000 67.398931 6.750930 44.117134 30.185236 -41.051598 11.531051 23.506416 -0.370005 -16.804294 0.000000 0.000000 0.000000 -7.125000 0.000000 0.000000 -4.217168 48.162670 0.329602 0.000000 0.000000 0.000000 -82.043848 2.862969 -41.761602 -39.609270 -47.836594 -18.149104 -37.806789 1.484512 -1.650790 0.000000 0.000000 0.000000 7.125000 0.000000 0.000000 -8.646964 27.855498 -3.642789
-2.712833 17.547838 0.637219 -6.657074 1.869296 3.282909 0.000000 0.000000 0.000000 -3.248058 -12.670203 -9.212817 2.687224 10.170618 29.531147 0.899374 3.202730 -19.345905 1.773379 -8.376405 -23.863783 0.000000 0.000000 0.000000 24.474550 3.276664 -11.088660 -2.831726 -10.417436 30.339460 -1.484594 0.676436 -22.841184 -0.004326 -0.422313 1.160358 -9.169209 1.105800 2.621778 -6.450700 0.938529 -1.423376 -1.624500 0.579488 -3.007770 -6.603939 2.951298 -21.275463 3.911154 5.456843 26.833794 3.473589 2.282202 12.063150 0.000000 0.000000 0.000000 62.651477 7.246073 44.986134 29.248721 -40.240634 10.921014 23.910960 -4.231007 -18.048606 0.000000 0.000000 0.000000 -7.125000 0.000000 0.000000 -4.104405 49.554308 0.461838 0.000000 0.000000 0.000000 -86.708801 2.632299 -41.532813 -41.143886 -48.733149 -19.294687 -38.117367 3.446348 -1.381350 0.000000 0.000000 0.000000 7.125000 0.000000 0.000000 -8.916311 28.182653 -3.689319
-2.874433 17.504407 0.677772 -9.268642 2.848770 2.911000 0.000000 0.000000 0.000000 0.391061 -13.577140 -9.445703 2.906091 10.541496 30.748595 1.004537 2.880722 -20.177613 1.979875 -8.824004 -25.246219 0.000000 0.000000 0.000000 27.970826 1.654793 -10.784446 -2.679092 -10.156570 29.485233 -1.414485 0.568086 -22.320265 -0.000018 0.035244 -0.096821 -10.347793 1.310211 2.266895 -8.519740 1.173403 -1.399127 -3.170624 0.690497 -2.784247 -5.892478 5.224443 -21.415606 3.383239 8.703195 27.825540 3.694406 3.684990 12.329902 0.000000 0.000000 0.000000 57.666967 7.617114 46.582060 28.446429 -39.523916 10.406542 23.592127 -7.312805 -19.362395 0.000000 0.000000 0.000000 -7.125000 0.000000 0.000000 -4.744691 50.900164 0.690831 0.000000 0.000000 0.000000 -92.037346 3.162586 -41.544914 -42.341125 -49.397333 -20.199138 -38.239174 3.303263 -2.436020 0.000000 0.000000 0.000000 7.125000 0.000000 0.000000 -8.879689 26.853480 -3.955454
-3.019335 17.438139 0.769185 -11.972669 3.510770 2.218036 0.000000 0.000000 0.000000 3.933689 -14.225139 -9.379843 3.203708 11.017760 32.339811 1.124179 2.644560 -21.142645 2.264500 -9.396523 -27.043861 0.000000 0.000000 0.000000 31.394447 0.018475 -9.976607 -2.494399 -9.827691 28.420381 -1.355362 1.176000 -21.662557 -0.002060 -0.286285 0.786481 -11.334769 1.669975 1.871838 -10.468764 1.650208 -1.375133 -4.742193 0.917975 -2.527553 -5.423504 7.763838 -21.472039 3.071166 12.367843 28.426933 4.072802 5.270899 12.414939 0.000000 0.000000 0.000000 52.483859 7.588074 47.771011 27.387733 -38.546391 9.739769 24.040236 -9.154511 -20.730361 0.000000 0.000000 0.000000 -7.125000 0.000000 0.000000 -4.671114 52.430634 0.855861 0.000000 0.000000 0.000000 -97.169828 3.814901 -42.222102 -45.702680 -51.107747 -22.784485 -39.406305 4.763953 -4.219036 0.000000 0.000000 0.000000 7.125000 0.000000 0.000000 -9.509432 24.527452 -4.766858
-3.157445 17.370906 0.839679 -14.506553 5.029271 1.631003 0.000000 0.000000 0.000000 7.573236 -14.873937 -10.095780 3.478428 11.431946 33.750802 1.241007 1.256929 -21.539275 2.354543 -9.568574 -27.590635 0.000000 0.000000 0.000000 34.731923 -1.699401 -9.593754 -2.342619 -9.546043 27.518659 -1.347531 0.882124 -21.683095 -0.000019 0.031917 -0.087686 -12.059837 1.651402 2.100525 -12.329086 1.556668 -1.219640 -6.400017 0.867439 -2.470049 -3.958678 10.920071 -21.634870 1.405189 17.036394 28.862983 3.975064 7.159225 12.699617 0.000000 0.000000 0.000000 47.883495 6.835890 48.764963 25.261883 -36.470381 8.445067 22.293820 -10.491818 -20.801731 0.000000 0.000000 0.000000 -7.125000 0.000000 0.000000 -6.457717 52.189137 1.146836 0.000000 0.000000 0.000000 -103.166550 5.149797 -42.563741 -51.447028 -53.562513 -27.334162 -42.822272 7.819209 -6.469514 0.000000 0.000000 0.000000 7.125000 0.000000 0.000000 -11.595983 21.260491 -6.738671
-3.278846 17.306973 0.920829 -16.603162 5.757906 0.999180 0.000000 0.000000 0.000000 10.428860 -15.545836 -10.132759 3.718095 11.775534 34.942367 1.366261 0.673039 -22.352975 2.404704 -9.662607 -27.890922 0.000000 0.000000 0.000000 37.453301 -2.685285 -8.981540 -2.233835 -9.336974 26.855201 -1.354053 0.944814 -21.718003 -0.002495 -0.320037 0.879402 -13.259953 1.963975 1.964357 -13.895944 1.923864 -1.299746 -7.539928 1.057540 -2.468083 -4.294729 12.710168 -21.277800 0.234746 20.060298 28.341200 3.980190 8.274984 12.431733 0.000000 0.000000 0.000000 44.494950 5.042309 49.261681 22.955521 -34.040054 7.113321 21.180432 -12.528312 -21.402974 0.000000 0.000000 0.000000 -7.125000 0.000000 0.000000 -7.775067 52.613963 1.464078 0.000000 0.000000 0.000000 -111.294566 5.444084 -43.021823 -55.707411 -55.053127 -30.795083 -45.987525 10.983150 -9.404543 0.000000 0.000000 0.000000 7.125000 0.000000 0.000000 -13.173122 16.786956 -9.051524
-3.385493 17.236786 0.988509 -18.979206 5.749257 0.592000 0.000000 0.000000 0.000000 13.431088 -16.412573 -9.791479 3.918611 12.051269 35.913689 1.488339 0.938404 -23.420516 2.462142 -9.768652 -28.230838 0.000000 0.000000 0.000000 40.277751 -3.904106 -8.659986 -2.133664 -9.139218 26.231642 -1.282989 1.699603 -20.923870 -0.006373 -0.515604 1.416654 -14.118576 1.961777 1.441077 -14.988829 1.956045 -1.527917 -8.329195 1.077964 -2.414821 -4.922964 13.594463 -21.842467 -1.334768 21.981376 27.590440 3.800322 8.804935 12.349152 0.000000 0.000000 0.000000 42.912454 3.169674 50.488743 20.782899 -31.574010 5.935938 21.135110 -11.704656 -21.208422 0.000000 0.000000 0.000000 -7.125000 0.000000 0.000000 -7.754332 52.404508 1.420116 0.000000 0.000000 0.000000 -120.633130 3.813564 -44.305999 -56.561775 -55.321916 -31.496509 -49.705032 10.785824 -11.567354 0.000000 0.000000 0.000000 7.125000 0.000000 0.000000 -15.069017 12.847657 -11.764447
